<svg class="img-fluid" id="outputsvg" xmlns="http://www.w3.org/2000/svg" style="transform: matrix(1, 0, 0, 1, 0, 0); transform-origin: 50% 50%; cursor: move; transition: transform 200ms ease-in-out 0s; max-height: none;" width="2000" height="2000" viewBox="0 0 20000 20000"><g id="l6As7j4zKSRQ858Vu7pYBdI" fill="" style="transform: none;"><g style="transform: none;"><path id="pqCgyIqbr" d="M10015 18044 c-356 -56 -599 -113 -1100 -258 -519 -149 -727 -228 -1125 -427 -455 -228 -653 -361 -950 -641 -265 -250 -839 -833 -902 -918 -58 -77 -97 -151 -98 -183 0 -10 25 -109 55 -220 136 -507 251 -1069 271 -1327 6 -74 4 -88 -12 -108 -18 -22 -21 -22 -100 -11 -110 14 -150 3 -203 -58 -70 -78 -119 -286 -141 -593 -12 -161 -31 -255 -85 -409 -65 -185 -88 -224 -169 -279 -39 -27 -134 -84 -211 -126 -223 -124 -376 -237 -536 -398 -204 -203 -344 -413 -531 -793 -186 -379 -248 -627 -235 -940 13 -309 96 -639 197 -790 47 -70 80 -152 80 -199 0 -44 -12 -77 -104 -282 -182 -411 -325 -860 -385 -1214 -91 -536 -19 -1765 136 -2305 113 -396 313 -713 660 -1045 128 -123 212 -180 372 -250 139 -62 222 -80 372 -80 70 0 130 -4 133 -8 3 -5 28 -95 56 -201 90 -343 183 -537 370 -770 185 -230 574 -570 885 -774 338 -221 1031 -507 1515 -626 347 -85 432 -91 1410 -98 1055 -7 1325 4 1880 82 659 93 1005 116 1715 117 569 1 787 -31 1053 -153 161 -75 216 -79 288 -24 92 71 87 127 -43 463 -90 234 -103 305 -59 339 14 11 85 42 158 68 205 73 651 251 737 294 223 114 463 284 645 461 296 287 485 594 600 971 55 183 68 294 67 600 0 522 -36 670 -287 1172 -177 355 -262 485 -419 642 -122 123 -228 206 -370 291 -116 69 -151 106 -161 171 -13 90 12 852 32 944 3 19 13 29 32 33 15 4 304 11 642 16 338 5 629 13 645 16 44 10 84 52 101 109 39 130 38 942 -1 1375 -60 654 -214 1056 -525 1370 -212 215 -364 277 -775 315 -172 16 -198 21 -232 42 -49 32 -62 109 -118 723 -122 1333 -188 1593 -550 2145 -184 283 -362 461 -695 699 -208 149 -374 229 -590 285 -186 48 -712 132 -1035 166 -82 8 -173 20 -201 26 -82 16 -109 57 -141 215 -17 82 -18 148 -16 849 2 418 -1 815 -6 882 -8 106 -14 130 -44 195 -110 237 -305 362 -657 423 -134 23 -405 35 -790 34 -324 -1 -368 -3 -505 -25z m1125 -325 c253 -29 453 -117 503 -222 34 -71 39 -159 47 -912 6 -603 11 -774 24 -874 10 -68 16 -149 14 -180 l-3 -56 -445 -6 c-769 -11 -1150 -44 -1625 -140 -544 -111 -1306 -393 -1702 -632 -313 -189 -844 -655 -1006 -884 -32 -46 -100 -167 -152 -270 -85 -174 -117 -224 -131 -210 -20 20 -88 370 -144 747 -53 356 -123 703 -212 1065 -60 241 -72 304 -72 375 -1 76 2 90 28 134 48 82 651 684 955 953 310 275 808 538 1390 735 449 152 1122 320 1453 364 229 30 855 37 1078 13z m985 -2608 c565 -43 1028 -113 1280 -196 490 -160 868 -510 1166 -1079 158 -302 204 -477 264 -986 14 -118 43 -348 65 -510 69 -521 99 -843 81 -870 -8 -12 -30 -15 -98 -13 -48 1 -301 3 -562 6 l-474 4 -46 78 c-109 183 -309 330 -525 385 -172 44 -272 13 -306 -92 -9 -29 -9 -46 0 -73 25 -76 84 -120 201 -150 146 -38 261 -122 336 -247 82 -136 83 -337 3 -487 -17 -31 -76 -112 -131 -181 -126 -156 -266 -352 -383 -535 -164 -257 -236 -417 -236 -525 0 -44 4 -52 37 -79 41 -34 88 -47 130 -36 26 6 81 58 130 121 l22 29 1 -160 c0 -176 -16 -620 -29 -784 -12 -154 8 -145 -321 -137 -159 3 -285 11 -314 18 -85 22 -82 11 -116 448 -37 471 -52 608 -95 865 -67 399 -156 697 -285 955 -156 312 -328 489 -602 623 -131 64 -184 83 -342 122 -292 73 -444 85 -1136 92 l-575 5 -149 -52 c-316 -110 -430 -176 -615 -355 -215 -208 -415 -452 -526 -640 -157 -267 -412 -1065 -510 -1598 -79 -435 -48 -637 112 -709 72 -32 460 -42 2903 -78 1410 -21 3540 -62 4170 -80 375 -12 445 -18 462 -41 19 -28 -4 -778 -33 -1074 -40 -410 -213 -1263 -316 -1559 -40 -114 -87 -200 -173 -315 -69 -91 -122 -141 -151 -141 -11 0 -69 29 -130 65 -440 261 -1177 540 -1494 565 -291 23 -948 6 -1215 -31 -816 -114 -1365 -339 -2005 -824 -186 -141 -230 -170 -244 -161 -5 3 -42 88 -81 189 -196 493 -414 874 -671 1173 -148 172 -362 331 -604 449 -168 82 -274 116 -493 160 -222 45 -285 62 -311 87 -20 18 -21 29 -21 292 0 282 -13 472 -51 731 -72 502 -216 865 -493 1245 l-46 64 0 137 c0 216 24 333 164 794 182 599 230 884 176 1057 -38 124 -166 258 -246 258 -58 0 -128 -29 -180 -74 -97 -85 -122 -139 -289 -606 -198 -553 -214 -585 -441 -868 -191 -238 -270 -304 -449 -373 -150 -58 -219 -72 -360 -73 -123 -1 -133 0 -188 27 -109 54 -246 213 -341 397 -117 226 -136 322 -136 669 0 281 5 313 83 507 78 193 186 393 333 614 213 322 396 490 685 629 300 145 511 173 822 110 170 -34 229 -34 303 2 78 37 152 163 309 524 204 470 354 744 514 934 128 154 579 540 753 645 226 137 727 346 1133 473 388 121 987 210 1695 253 191 11 1014 5 1205 -9z m-1985 -3726 c599 -45 947 -116 1125 -229 71 -46 186 -156 247 -236 69 -90 179 -318 232 -482 72 -220 132 -512 176 -853 30 -237 70 -661 77 -816 6 -134 6 -137 -16 -149 -18 -9 -137 -9 -529 -1 -279 6 -813 18 -1187 26 -374 8 -966 19 -1315 25 -349 5 -751 11 -894 14 -203 3 -260 7 -268 17 -16 23 -1 245 26 389 71 381 258 996 392 1295 66 146 125 235 269 402 193 225 364 393 450 443 249 142 668 195 1215 155z m4675 -275 c105 -11 335 -31 512 -45 533 -41 659 -79 819 -247 298 -312 405 -736 445 -1763 16 -405 8 -505 -42 -520 -9 -3 -122 -1 -251 4 -309 14 -1231 31 -2138 39 -782 8 -771 7 -790 56 -5 15 -1 106 10 242 31 357 49 659 60 994 6 173 16 333 22 355 17 66 42 106 161 256 199 253 237 318 271 476 28 124 55 161 128 174 78 14 590 1 793 -21z"></path><path id="p765fwX4r" d="M11757 13359 c-257 -24 -484 -107 -618 -227 -78 -70 -88 -148 -28 -217 36 -40 86 -59 143 -52 22 2 95 29 161 60 162 74 225 94 339 108 121 14 278 0 403 -37 182 -54 194 -56 224 -43 16 6 45 29 65 51 32 35 35 44 29 77 -23 133 -80 175 -329 247 -136 39 -236 48 -389 33z"></path><path id="pXdgN6ynK" d="M5825 11628 c-85 -30 -193 -128 -290 -263 -27 -39 -57 -71 -66 -73 -10 -2 -50 25 -90 58 -98 82 -122 94 -194 95 -178 1 -403 -216 -560 -540 -107 -221 -150 -399 -142 -585 5 -133 25 -200 106 -357 63 -123 110 -184 186 -245 74 -60 144 -87 261 -101 128 -15 222 0 327 51 200 96 305 220 277 324 -11 40 -89 118 -117 118 -24 0 -73 -26 -208 -110 -165 -103 -225 -112 -322 -47 -65 44 -109 105 -135 190 -20 62 -23 94 -23 227 0 180 12 235 80 375 65 134 197 305 236 305 19 0 37 -22 102 -119 60 -91 106 -115 207 -107 41 3 85 8 98 12 34 10 28 -16 -24 -96 -59 -92 -91 -164 -105 -244 -11 -60 -11 -67 12 -112 35 -69 67 -89 144 -89 76 0 97 15 146 108 42 82 82 135 218 297 320 379 394 613 256 802 -38 52 -105 102 -166 123 -48 17 -170 18 -214 3z"></path><path id="p8dZj3OFE" d="M13887 7599 c-29 -22 -59 -74 -71 -121 -9 -40 15 -88 68 -135 91 -80 185 -107 376 -106 148 1 249 20 340 66 86 43 113 82 108 155 -6 66 -32 102 -87 122 -38 13 -48 13 -131 -9 -129 -34 -284 -27 -421 18 -112 36 -144 38 -182 10z"></path><path id="pZGU6tYx0" d="M9931 7538 c-44 -30 -71 -82 -71 -137 0 -41 5 -49 53 -96 61 -59 225 -146 310 -165 66 -15 270 -1 377 26 148 37 271 123 285 198 11 57 -3 106 -41 144 -33 33 -37 34 -87 29 -29 -3 -101 -25 -162 -48 -98 -37 -119 -42 -195 -42 -88 1 -112 7 -280 79 -91 38 -146 42 -189 12z"></path><path id="p1EQDkmWQ3" d="M10262 10404 c-29 -7 -67 -21 -84 -30 -84 -43 -189 -179 -244 -315 -25 -61 -26 -70 -21 -199 9 -223 57 -348 180 -473 104 -105 143 -122 287 -122 110 0 119 2 180 32 147 73 260 254 289 463 22 169 -47 373 -173 508 -120 128 -266 176 -414 136z"></path><path id="phuPDDsmU" d="M15164 10950 c-44 -14 -81 -51 -93 -96 -13 -48 -14 -153 -1 -354 32 -515 42 -730 50 -1120 5 -245 14 -451 20 -472 6 -20 26 -50 46 -67 59 -53 126 -38 217 47 l27 26 -1 615 c0 807 -10 1130 -37 1233 -24 87 -50 144 -81 172 -24 22 -100 30 -147 16z"></path><path id="pfbx0mXdE" d="M14258 10194 c-68 -21 -158 -108 -202 -194 -44 -88 -59 -180 -54 -333 3 -120 4 -123 46 -209 82 -169 224 -283 351 -282 119 0 249 105 324 261 l42 88 0 130 c0 148 -12 207 -62 313 -42 90 -117 168 -203 211 -53 26 -74 31 -129 30 -36 0 -87 -7 -113 -15z"></path></g></g></svg>